<svg width="16" height="17" viewBox="0 0 16 17" fill="none" xmlns="http://www.w3.org/2000/svg">
<path fill-rule="evenodd" clip-rule="evenodd" d="M9.18971 0.223849C9.62877 0.131017 10.0867 0.216463 10.4628 0.461381C10.8386 0.706182 11.1019 1.09025 11.1946 1.5291L11.246 1.77091L14.813 1.01274C15.2025 0.929958 15.5854 1.17859 15.6681 1.56808C15.7509 1.95757 15.5023 2.34042 15.1128 2.42321L10.8897 3.32083C10.8737 3.32541 10.8575 3.32946 10.8411 3.33294L6.09444 4.34232C6.07595 4.34626 6.05739 4.34944 6.03878 4.3519L1.82196 5.24819C1.43247 5.33097 1.04962 5.08234 0.96683 4.69285C0.884044 4.30336 1.13268 3.92051 1.52217 3.83772L5.0889 3.07961L5.0376 2.83823C4.94359 2.39865 5.02831 1.93924 5.27326 1.5623C5.51815 1.18544 5.90295 0.921548 6.34269 0.82884L9.18971 0.223849ZM9.83558 2.0707L6.49936 2.77982L6.44784 2.53736L6.4476 2.53627C6.43371 2.47139 6.44622 2.40365 6.48237 2.34801C6.51852 2.29238 6.57534 2.25343 6.64027 2.23977L9.48799 1.63464C9.5527 1.62102 9.62041 1.63359 9.67582 1.66968C9.73131 1.70582 9.77015 1.76252 9.78382 1.82731L9.78407 1.8285L9.83558 2.0707ZM11.8699 4.30482C11.8699 3.90663 12.1927 3.58383 12.5909 3.58383H14.2893C14.4915 3.58383 14.6843 3.66867 14.8209 3.81767C14.9574 3.96666 15.0252 4.16614 15.0076 4.36749L14.1117 14.6355L14.1116 14.6373C14.0378 15.5152 13.3026 16.1895 12.4216 16.1873L12.4202 16.1872L12.4226 15.4663L12.4216 16.1873H5.47666C4.59704 16.1867 3.86419 15.5122 3.79146 14.6356L3.12048 6.5495C3.08755 6.15267 3.38255 5.80429 3.77938 5.77136C4.17621 5.73843 4.52459 6.03343 4.55752 6.43025L5.2285 14.5163C5.23923 14.6456 5.34729 14.7452 5.47708 14.7453H12.4226L12.4251 14.7453C12.5553 14.7457 12.6639 14.6461 12.6747 14.5163L12.6749 14.5133L13.5027 5.02581H12.5909C12.1927 5.02581 11.8699 4.70301 11.8699 4.30482ZM7.49542 6.49551C7.89361 6.49551 8.21641 6.81831 8.21641 7.2165V12.0693C8.21641 12.4675 7.89361 12.7903 7.49542 12.7903C7.09723 12.7903 6.77444 12.4675 6.77444 12.0693V7.2165C6.77444 6.81831 7.09723 6.49551 7.49542 6.49551ZM10.4071 6.49551C10.8053 6.49551 11.1281 6.81831 11.1281 7.2165V12.0693C11.1281 12.4675 10.8053 12.7903 10.4071 12.7903C10.0089 12.7903 9.68612 12.4675 9.68612 12.0693V7.2165C9.68612 6.81831 10.0089 6.49551 10.4071 6.49551Z" fill="#828282"/>
</svg>
