<svg width="17" height="16" viewBox="0 0 17 16" fill="none" xmlns="http://www.w3.org/2000/svg">
<path d="M12.072 4.464L6.79999 9.736L3.92799 6.872L2.79999 8L6.79999 12L13.2 5.6L12.072 4.464ZM8.39999 0C3.98399 0 0.399994 3.584 0.399994 8C0.399994 12.416 3.98399 16 8.39999 16C12.816 16 16.4 12.416 16.4 8C16.4 3.584 12.816 0 8.39999 0ZM8.39999 14.4C4.86399 14.4 1.99999 11.536 1.99999 8C1.99999 4.464 4.86399 1.6 8.39999 1.6C11.936 1.6 14.8 4.464 14.8 8C14.8 11.536 11.936 14.4 8.39999 14.4Z" fill="#02438E"/>
</svg>
