<svg width="17" height="16" viewBox="0 0 17 16" fill="none" xmlns="http://www.w3.org/2000/svg">
<path d="M12.0719 4.464L6.7999 9.736L3.9279 6.872L2.7999 8L6.7999 12L13.1999 5.6L12.0719 4.464ZM8.3999 0C3.9839 0 0.399902 3.584 0.399902 8C0.399902 12.416 3.9839 16 8.3999 16C12.8159 16 16.3999 12.416 16.3999 8C16.3999 3.584 12.8159 0 8.3999 0ZM8.3999 14.4C4.8639 14.4 1.9999 11.536 1.9999 8C1.9999 4.464 4.8639 1.6 8.3999 1.6C11.9359 1.6 14.7999 4.464 14.7999 8C14.7999 11.536 11.9359 14.4 8.3999 14.4Z" fill="#828282"/>
</svg>
