<svg width="16" height="16" viewBox="0 0 16 16" fill="none" xmlns="http://www.w3.org/2000/svg">
<path d="M15.9497 4.11043C15.9503 4.01189 15.9314 3.91422 15.894 3.823C15.8567 3.73178 15.8017 3.64881 15.7322 3.57885L12.5525 0.40439C12.4824 0.335 12.3993 0.280101 12.3079 0.242843C12.2165 0.205585 12.1187 0.186699 12.02 0.187268C11.9213 0.186699 11.8235 0.205585 11.7321 0.242843C11.6407 0.280101 11.5576 0.335 11.4875 0.40439L9.36519 2.52319L1.1683 10.7064C1.0988 10.7764 1.04381 10.8593 1.00649 10.9506C0.969165 11.0418 0.950248 11.1395 0.950818 11.238V14.4125C0.950818 14.611 1.02983 14.8015 1.17047 14.9419C1.31111 15.0823 1.50186 15.1612 1.70076 15.1612H4.88052C4.98546 15.1668 5.09043 15.1505 5.18862 15.1131C5.2868 15.0757 5.37602 15.0181 5.45048 14.944L13.6024 6.7608L15.7322 4.67943C15.8007 4.60687 15.8564 4.52335 15.8972 4.43236C15.9044 4.37269 15.9044 4.31236 15.8972 4.25268C15.9007 4.21783 15.9007 4.18271 15.8972 4.14786L15.9497 4.11043ZM4.57305 13.6638H2.45071V11.545L9.89765 4.11043L12.02 6.22923L4.57305 13.6638ZM13.0774 5.17357L10.9551 3.05477L12.02 1.99911L14.1348 4.11043L13.0774 5.17357Z" fill="#828282"/>
</svg>
