<svg width="543" height="187" viewBox="0 0 543 187" fill="none" xmlns="http://www.w3.org/2000/svg">
<path d="M195.2 184.5C176.68 184.5 158.04 184.44 139.41 184.57C136.81 184.59 136.48 183.17 135.98 181.36C133.19 171.28 130.25 161.24 127.59 151.13C126.82 148.21 125.55 147.27 122.49 147.3C106.17 147.46 89.86 147.47 73.54 147.3C70.25 147.27 69 148.31 68.19 151.48C65.65 161.45 62.66 171.31 59.92 181.23C59.41 183.06 59.15 184.58 56.56 184.56C37.92 184.46 19.28 184.51 0.0100098 184.51C1.71001 179.42 3.22001 174.72 4.84001 170.07C23.4 116.8 42.02 63.55 60.44 10.23C61.83 6.21999 63.61 4.98999 67.77 5.02999C88.58 5.24999 109.39 5.16999 130.21 5.08999C132.96 5.07999 134.6 5.47999 135.65 8.55999C155.22 65.88 174.93 123.15 194.6 180.43C195 181.64 195.87 182.81 195.2 184.5ZM80.34 108.24C92.27 108.24 103.63 108.24 115.41 108.24C108.84 87.3 103.75 66.4 97.91 45.56C92.27 66.42 86.91 87.26 80.34 108.24Z" fill="#02438E"/>
<path d="M360.45 72.58C361.42 73.93 360.98 75.48 360.98 76.94C361.01 109.06 361 141.18 361 173.31C361 175.63 361.38 177.81 358.11 178.68C320.86 188.55 283.54 191.51 246.91 176.87C210.89 162.48 194.38 134.29 193.36 96.28C192.81 75.71 196.51 56.19 208.66 39.04C222.47 19.53 242.26 9.18003 264.9 3.91003C293.25 -2.68997 321.35 -0.569968 349.15 7.66003C353.67 9.00003 354.52 10.88 353.2 15.33C350.32 25.03 347.89 34.88 345.63 44.75C344.87 48.07 344.09 48.45 340.86 47.22C322.98 40.4 304.52 37.69 285.55 41.31C264.95 45.24 252.71 57.87 248.95 78.4C246.33 92.7 247.04 106.92 252.47 120.59C259.25 137.64 275.22 148.48 293.6 148.68C299.08 148.74 304.57 148.78 310.05 148.07C313.05 147.68 313.76 146.44 313.71 143.59C313.54 132.94 313.64 122.29 313.64 111.64C329.25 98.61 344.85 85.59 360.45 72.58Z" fill="#02438E"/>
<path d="M493.1 186.85C471.9 186.65 450.79 182.93 431.12 172.83C402.3 158.02 387.1 134.09 384.61 102.13C382.69 77.52 386.87 54.32 403.36 34.73C415.43 20.39 431.09 11.62 448.8 6.29002C477.65 -2.40998 506.49 -1.78998 535.37 6.39002C539.63 7.60002 540.31 9.39002 539.17 13.41C536.36 23.31 533.83 33.31 531.55 43.35C530.75 46.88 529.73 46.95 526.65 45.67C511.5 39.35 495.66 37.95 479.64 40.91C457.33 45.04 443.21 61.26 441.52 84.13C440.91 92.43 440.9 100.76 442.83 108.96C447.84 130.26 463.24 143.63 485.99 146.58C501.6 148.6 516.89 147.41 531.75 142.2C534.68 141.17 535.05 142.2 535.59 144.58C537.83 154.46 540.11 164.34 542.69 174.14C543.42 176.93 542.69 177.8 540.19 178.75C525.23 184.37 509.73 186.87 493.1 186.85Z" fill="#02438E"/>
<path d="M360.45 72.58C344.85 85.6 329.25 98.61 313.64 111.63C303.5 111.56 293.35 111.34 283.22 111.5C279.68 111.56 278.28 110.89 278.39 106.93C278.69 96.46 278.51 85.98 278.48 75.51C278.47 73.4 278.32 71.68 281.44 71.69C307.22 71.79 333.01 71.75 358.79 71.79C359.35 71.8 359.9 72.31 360.45 72.58Z" fill="#E63558"/>
</svg>
