<svg width="16" height="9" viewBox="0 0 16 9" fill="none" xmlns="http://www.w3.org/2000/svg">
<path opacity="0.6" d="M8.47273 2.90909C7.87636 1.21455 6.26182 0 4.36364 0C1.95636 0 0 1.95636 0 4.36364C0 6.77091 1.95636 8.72727 4.36364 8.72727C6.26182 8.72727 7.87636 7.51273 8.47273 5.81818H11.6364V8.72727H14.5455V5.81818H16V2.90909H8.47273ZM4.36364 5.81818C3.56364 5.81818 2.90909 5.16364 2.90909 4.36364C2.90909 3.56364 3.56364 2.90909 4.36364 2.90909C5.16364 2.90909 5.81818 3.56364 5.81818 4.36364C5.81818 5.16364 5.16364 5.81818 4.36364 5.81818Z" fill="#4F4F4F"/>
</svg>
