<svg width="16" height="10" viewBox="0 0 16 10" fill="none" xmlns="http://www.w3.org/2000/svg">
<path d="M8.47273 3.54544C7.87636 1.8509 6.26182 0.636353 4.36364 0.636353C1.95636 0.636353 0 2.59272 0 4.99999C0 7.40726 1.95636 9.36363 4.36364 9.36363C6.26182 9.36363 7.87636 8.14908 8.47273 6.45453H11.6364V9.36363H14.5455V6.45453H16V3.54544H8.47273ZM4.36364 6.45453C3.56364 6.45453 2.90909 5.79999 2.90909 4.99999C2.90909 4.19999 3.56364 3.54544 4.36364 3.54544C5.16364 3.54544 5.81818 4.19999 5.81818 4.99999C5.81818 5.79999 5.16364 6.45453 4.36364 6.45453Z" fill="white"/>
</svg>
