<svg width="16" height="14" viewBox="0 0 16 14" fill="none" xmlns="http://www.w3.org/2000/svg">
<path d="M3.77155 5.21889L2.73185 6.22222L12.0012 6.22222C12.2133 6.22222 12.4167 6.30417 12.5667 6.45003C12.7167 6.59589 12.8009 6.79372 12.8009 7C12.8009 7.20628 12.7167 7.40411 12.5667 7.54997C12.4167 7.69583 12.2133 7.77778 12.0012 7.77778L2.73185 7.77778L3.77155 8.78111C3.84651 8.85342 3.906 8.93944 3.94661 9.03422C3.98721 9.129 4.00812 9.23066 4.00812 9.33333C4.00812 9.43601 3.98721 9.53767 3.94661 9.63245C3.906 9.72723 3.84651 9.81325 3.77155 9.88556C3.6972 9.95846 3.60874 10.0163 3.51128 10.0558C3.41382 10.0953 3.30929 10.1156 3.20371 10.1156C3.09813 10.1156 2.9936 10.0953 2.89614 10.0558C2.79868 10.0163 2.71022 9.95846 2.63587 9.88556L0.23657 7.55222C0.161609 7.47992 0.102111 7.39389 0.061508 7.29912C0.0209048 7.20434 3.10468e-07 7.10268 3.0598e-07 7C3.01492e-07 6.89732 0.0209048 6.79566 0.061508 6.70088C0.102111 6.60611 0.161609 6.52008 0.23657 6.44778L2.63587 4.11444C2.78647 3.96799 2.99073 3.88571 3.20371 3.88571C3.41669 3.88571 3.62095 3.96799 3.77155 4.11444C3.92214 4.2609 4.00675 4.45954 4.00675 4.66667C4.00675 4.87379 3.92214 5.07243 3.77155 5.21889ZM5.60301 11.6667L5.60301 10.1111C5.60301 9.90483 5.68728 9.707 5.83726 9.56114C5.98725 9.41528 6.19067 9.33333 6.40278 9.33333C6.61489 9.33333 6.81832 9.41528 6.9683 9.56114C7.11829 9.707 7.20255 9.90483 7.20255 10.1111L7.20255 11.6667C7.20255 11.8729 7.28681 12.0708 7.4368 12.2166C7.58678 12.3625 7.79021 12.4444 8.00232 12.4444L13.6007 12.4444C13.8128 12.4444 14.0162 12.3625 14.1662 12.2166C14.3162 12.0708 14.4005 11.8729 14.4005 11.6667L14.4005 2.33333C14.4005 2.12705 14.3162 1.92922 14.1662 1.78336C14.0162 1.6375 13.8128 1.55555 13.6007 1.55555L8.00232 1.55556C7.79021 1.55556 7.58678 1.6375 7.4368 1.78336C7.28681 1.92922 7.20255 2.12705 7.20255 2.33333L7.20255 3.88889C7.20255 4.09517 7.11829 4.293 6.9683 4.43886C6.81832 4.58472 6.61489 4.66667 6.40278 4.66667C6.19067 4.66667 5.98725 4.58472 5.83726 4.43886C5.68728 4.293 5.60301 4.09517 5.60301 3.88889L5.60301 2.33333C5.60301 1.71449 5.8558 1.121 6.30575 0.683417C6.75571 0.245832 7.36598 -3.21977e-07 8.00232 -3.49792e-07L13.6007 -5.94505e-07C14.237 -6.2232e-07 14.8473 0.245832 15.2973 0.683417C15.7472 1.121 16 1.71449 16 2.33333L16 11.6667C16 12.2855 15.7472 12.879 15.2973 13.3166C14.8473 13.7542 14.237 14 13.6007 14L8.00232 14C7.36598 14 6.75571 13.7542 6.30575 13.3166C5.8558 12.879 5.60302 12.2855 5.60301 11.6667Z" fill="#02438E"/>
</svg>
