<svg width="17" height="14" viewBox="0 0 17 14" fill="none" xmlns="http://www.w3.org/2000/svg">
<path d="M4.27155 8.78111L3.23185 7.77778L12.5012 7.77778C12.7133 7.77778 12.9167 7.69583 13.0667 7.54997C13.2167 7.40411 13.3009 7.20628 13.3009 7C13.3009 6.79372 13.2167 6.59589 13.0667 6.45003C12.9167 6.30417 12.7133 6.22222 12.5012 6.22222L3.23185 6.22222L4.27155 5.21889C4.34651 5.14659 4.40601 5.06056 4.44661 4.96578C4.48721 4.871 4.50812 4.76934 4.50812 4.66667C4.50812 4.56399 4.48721 4.46233 4.44661 4.36755C4.40601 4.27277 4.34651 4.18675 4.27155 4.11444C4.1972 4.04154 4.10874 3.98368 4.01128 3.9442C3.91382 3.90471 3.80929 3.88438 3.70371 3.88438C3.59813 3.88438 3.4936 3.90471 3.39614 3.9442C3.29868 3.98368 3.21022 4.04154 3.13588 4.11444L0.736571 6.44778C0.66161 6.52008 0.602112 6.60611 0.561509 6.70088C0.520905 6.79566 0.500001 6.89732 0.500001 7C0.500001 7.10268 0.520905 7.20434 0.561509 7.29912C0.602112 7.39389 0.66161 7.47992 0.736571 7.55222L3.13588 9.88556C3.28647 10.032 3.49073 10.1143 3.70371 10.1143C3.91669 10.1143 4.12095 10.032 4.27155 9.88556C4.42215 9.7391 4.50675 9.54046 4.50675 9.33333C4.50675 9.12621 4.42215 8.92757 4.27155 8.78111ZM6.10302 2.33333L6.10302 3.88889C6.10302 4.09517 6.18728 4.293 6.33726 4.43886C6.48725 4.58472 6.69067 4.66667 6.90278 4.66667C7.1149 4.66667 7.31832 4.58472 7.4683 4.43886C7.61829 4.293 7.70255 4.09517 7.70255 3.88889L7.70255 2.33333C7.70255 2.12705 7.78681 1.92922 7.9368 1.78336C8.08679 1.6375 8.29021 1.55556 8.50232 1.55556L14.1007 1.55556C14.3128 1.55556 14.5162 1.6375 14.6662 1.78336C14.8162 1.92922 14.9005 2.12706 14.9005 2.33333L14.9005 11.6667C14.9005 11.8729 14.8162 12.0708 14.6662 12.2166C14.5162 12.3625 14.3128 12.4444 14.1007 12.4444L8.50232 12.4444C8.29021 12.4444 8.08678 12.3625 7.9368 12.2166C7.78681 12.0708 7.70255 11.8729 7.70255 11.6667L7.70255 10.1111C7.70255 9.90483 7.61829 9.707 7.4683 9.56114C7.31832 9.41528 7.11489 9.33333 6.90278 9.33333C6.69067 9.33333 6.48725 9.41528 6.33726 9.56114C6.18728 9.707 6.10302 9.90483 6.10301 10.1111L6.10301 11.6667C6.10301 12.2855 6.3558 12.879 6.80575 13.3166C7.25571 13.7542 7.86598 14 8.50232 14L14.1007 14C14.737 14 15.3473 13.7542 15.7973 13.3166C16.2472 12.879 16.5 12.2855 16.5 11.6667L16.5 2.33334C16.5 1.7145 16.2472 1.121 15.7973 0.683419C15.3473 0.245834 14.737 1.86696e-06 14.1007 1.78352e-06L8.50232 1.04938e-06C7.86599 9.65932e-07 7.25571 0.245833 6.80576 0.683418C6.3558 1.121 6.10302 1.7145 6.10302 2.33333Z" fill="white"/>
</svg>
